# xmcd
#
# Track frame offsets:
#	150
#	10317
#	23359
#	32628
#	50046
#	65337
#	77815
#	89874
#	102288
#	112101
#	125817
#	140146
#
# Disc length: 2010 seconds
# Revision: 0
# Processed by: cddbd v1.5.2PL0 Copyright (c) Steve Scherf et al.
# Submitted via: dBpowerAMP V12.0
#
DISCID=aa07d80c
DTITLE=Sonny James - 200 Years of Country Music [Columbia] (L)
DYEAR=1976
DGENRE=Country
TTITLE0=Introductory
TTITLE1=Prisoner's Song
TTITLE2=Blue Moon Of Kentucky
TTITLE3=Great Speckled Bird
TTITLE4=San Antonio Rose
TTITLE5=I'm So Lonesome I Could Cry
TTITLE6=Wildwood Flower
TTITLE7=I Don't Care If The Sun Don't Shine
TTITLE8=Waiting For A Train
TTITLE9=Back In The Saddle Again
TTITLE10=Just A Closer Walk With Thee
TTITLE11=Hard To Please
EXTD=
EXTT0=
EXTT1=
EXTT2=
EXTT3=
EXTT4=
EXTT5=
EXTT6=
EXTT7=
EXTT8=
EXTT9=
EXTT10=
EXTT11=
PLAYORDER=
